<mxfile host="app.diagrams.net" agent="Mozilla/5.0 (Windows NT 10.0; Win64; x64) AppleWebKit/537.36 (KHTML, like Gecko) Chrome/127.0.0.0 Safari/537.36" version="24.7.6">
  <diagram name="Page-1" id="aeH0r6ZrlhyK-WKEsFYJ">
    <mxGraphModel dx="880" dy="434" grid="1" gridSize="10" guides="1" tooltips="1" connect="1" arrows="1" fold="1" page="1" pageScale="1" pageWidth="850" pageHeight="1100" math="0" shadow="0">
      <root>
        <mxCell id="0" />
        <mxCell id="1" parent="0" />
        <mxCell id="_t9rGkGyCb4sTRNZPYyw-3" value="User" style="rounded=0;whiteSpace=wrap;html=1;gradientColor=none;" vertex="1" parent="1">
          <mxGeometry x="180" y="170" width="110" height="30" as="geometry" />
        </mxCell>
        <mxCell id="_t9rGkGyCb4sTRNZPYyw-4" value="Id" style="ellipse;whiteSpace=wrap;html=1;" vertex="1" parent="1">
          <mxGeometry x="70" y="80" width="67.5" height="30" as="geometry" />
        </mxCell>
        <mxCell id="_t9rGkGyCb4sTRNZPYyw-5" value="F_Name" style="ellipse;whiteSpace=wrap;html=1;" vertex="1" parent="1">
          <mxGeometry x="150" y="70" width="67.5" height="30" as="geometry" />
        </mxCell>
        <mxCell id="_t9rGkGyCb4sTRNZPYyw-6" value="L_Name" style="ellipse;whiteSpace=wrap;html=1;" vertex="1" parent="1">
          <mxGeometry x="230" y="70" width="67.5" height="30" as="geometry" />
        </mxCell>
        <mxCell id="_t9rGkGyCb4sTRNZPYyw-7" value="Password" style="ellipse;whiteSpace=wrap;html=1;" vertex="1" parent="1">
          <mxGeometry x="297.5" y="90" width="67.5" height="30" as="geometry" />
        </mxCell>
        <mxCell id="_t9rGkGyCb4sTRNZPYyw-8" value="Email" style="ellipse;whiteSpace=wrap;html=1;" vertex="1" parent="1">
          <mxGeometry x="350" y="130" width="67.5" height="30" as="geometry" />
        </mxCell>
        <mxCell id="_t9rGkGyCb4sTRNZPYyw-9" value="Address" style="ellipse;whiteSpace=wrap;html=1;gradientColor=none;" vertex="1" parent="1">
          <mxGeometry x="10" y="120" width="67.5" height="30" as="geometry" />
        </mxCell>
        <mxCell id="_t9rGkGyCb4sTRNZPYyw-10" value="Phone_no" style="ellipse;whiteSpace=wrap;html=1;" vertex="1" parent="1">
          <mxGeometry x="10" y="170" width="67.5" height="30" as="geometry" />
        </mxCell>
      </root>
    </mxGraphModel>
  </diagram>
</mxfile>
